<svg version="1" xmlns="http://www.w3.org/2000/svg" width="346.667" height="346.667" viewBox="0 0 260.000000 260.000000"><path d="M.4 75.8c.3 5.3.6 11.4.7 13.5.1 2 .6 4 1.1 4.3.6.4 28.4.6 61.9.6H125l.1 41.2c0 22.6.1 44.9.2 49.6l.2 8.5h27l.3-24.7.2-24.8 28.3-.2 28.2-.3.3-13.8c.2-12.5.1-13.7-1.5-13.8-1 0-13.8-.1-28.5-.1H153v-14.2c-.1-7.7-.2-18.8-.3-24.6l-.2-10.5-76.3-.2-76.4-.2.6 9.7zM224.9 66.5c-.1 0-.3 28.7-.4 63.7l-.2 63.8 14.1-.2 14.1-.1-.1-62.6c-.1-34.4-.2-63.1-.3-63.6-.1-.7-4.9-1.1-13.6-1.1-7.4 0-13.6.1-13.6.1z"/><path d="M52.9 108.8c-1.4.3-1.6 5.2-1.5 42.5l.1 42.2 13.8.2c7.5 0 13.7-.2 13.8-.5 0-.4.1-19.5.2-42.5.2-41.1.2-41.7-1.8-41.8-5.6-.3-23.3-.4-24.6-.1z"/></svg>